<mxfile host="app.diagrams.net" agent="Mozilla/5.0 (X11; Linux x86_64) AppleWebKit/537.36 (KHTML, like Gecko) Chrome/125.0.0.0 Safari/537.36" version="24.8.4">
  <diagram name="Page-1" id="PI9UIcbBHWW7n74lASkF">
    <mxGraphModel dx="1757" dy="1057" grid="1" gridSize="10" guides="1" tooltips="1" connect="1" arrows="1" fold="1" page="1" pageScale="1" pageWidth="850" pageHeight="1100" math="0" shadow="0">
      <root>
        <mxCell id="0" />
        <mxCell id="1" parent="0" />
        <mxCell id="bHr4WTnW9dxizM_RlFUB-1" value="" style="shape=flexArrow;endArrow=classic;html=1;rounded=0;endWidth=40;endSize=8.65;width=46;" edge="1" parent="1">
          <mxGeometry width="50" height="50" relative="1" as="geometry">
            <mxPoint x="120" y="180" as="sourcePoint" />
            <mxPoint x="290" y="180" as="targetPoint" />
          </mxGeometry>
        </mxCell>
        <mxCell id="bHr4WTnW9dxizM_RlFUB-7" value="&lt;b&gt;&lt;font style=&quot;font-size: 15px;&quot;&gt;getBalance&lt;/font&gt;&lt;/b&gt;" style="edgeLabel;html=1;align=center;verticalAlign=middle;resizable=0;points=[];" vertex="1" connectable="0" parent="bHr4WTnW9dxizM_RlFUB-1">
          <mxGeometry x="-0.1042" y="2" relative="1" as="geometry">
            <mxPoint as="offset" />
          </mxGeometry>
        </mxCell>
      </root>
    </mxGraphModel>
  </diagram>
</mxfile>
